<svg version="1.1" id="Layer_1" xmlns="http://www.w3.org/2000/svg" xmlns:xlink="http://www.w3.org/1999/xlink" viewBox="0 0 512 512" xml:space="preserve" fill="#000000"><g id="SVGRepo_bgCarrier" stroke-width="0"></g><g id="SVGRepo_tracerCarrier" stroke-linecap="round" stroke-linejoin="round"></g><g id="SVGRepo_iconCarrier"> <path style="fill:#8EBA3F;" d="M207.531,263.091c-1.004,0.992-2.251,1.747-3.648,2.179c-20.387,6.288-42.422,0.953-57.504-13.926 c-15.084-14.882-20.494-36.62-14.118-56.731c0.438-1.377,1.203-2.606,2.208-3.598c1.005-0.992,2.252-1.748,3.649-2.18 c20.386-6.291,42.42-0.954,57.503,13.926c15.083,14.881,20.493,36.617,14.118,56.731 C209.303,260.868,208.537,262.099,207.531,263.091z"></path> <g> <path style="fill:#603813;" d="M217.293,191.34v70.213l-34.564-34.098c-3.127-3.087-8.16-3.051-11.243,0.075 c-3.084,3.125-3.049,8.16,0.076,11.243l45.731,45.115v26.176h15.9V191.34H217.293z"></path> <rect x="279.835" y="274.024" style="fill:#603813;" width="15.9" height="36.041"></rect> </g> <path style="fill:#DDAD7F;" d="M183.437,362.005l8.439,139.414c0.351,5.818,5.41,10.581,11.24,10.581h121.059 c5.831,0,10.889-4.763,11.24-10.581l8.439-139.414H183.437z"></path> <path style="fill:#8EBA3F;" d="M310.16,306.04c-0.933-0.92-1.642-2.061-2.047-3.337c-5.909-18.642-0.895-38.792,13.086-52.584 c13.982-13.794,34.405-18.742,53.302-12.91c1.295,0.4,2.45,1.101,3.382,2.02c0.932,0.918,1.642,2.059,2.046,3.337 c5.912,18.642,0.897,38.791-13.085,52.586c-13.981,13.793-34.405,18.74-53.303,12.909C312.246,307.66,311.091,306.96,310.16,306.04z "></path> <path style="fill:#603813;" d="M317.4,310.063l26.059-25.709c3.126-3.083,3.16-8.117,0.076-11.244 c-3.085-3.124-8.119-3.159-11.243-0.075l-37.532,37.027h22.64V310.063z"></path> <g> <path style="fill:#5D9341;" d="M255.655,169.543c0,15.636-12.848,28.313-28.698,28.313h-3.426 c-15.849,0-28.698-12.677-28.698-28.313l0,0c0-15.635,12.849-28.312,28.698-28.312h3.426 C242.807,141.232,255.655,153.908,255.655,169.543L255.655,169.543z"></path> <path style="fill:#5D9341;" d="M315.451,251.813c0,14.22-11.687,25.753-26.103,25.753h-3.116 c-14.416,0-26.102-11.531-26.102-25.753l0,0c0-14.221,11.686-25.75,26.102-25.75h3.116 C303.764,226.063,315.451,237.591,315.451,251.813L315.451,251.813z"></path> </g> <path style="fill:#FFD1CF;" d="M226.02,55.427l28.483-17.433C251.173,16.153,239.338,0,225.244,0 c-13.906,0-25.609,15.732-29.115,37.131L226.02,55.427z"></path> <path style="fill:#FFC0BB;" d="M231.737,51.875l-54.956-33.634c-1.894,0-3.431,1.521-3.431,3.4V80.82 c0,2.204,0.179,4.368,0.514,6.477L231.737,51.875z"></path> <path style="fill:#FFAA9F;" d="M237.167,122.311c23.081,0,41.858-18.613,41.858-41.492V21.64c0-1.879-1.536-3.4-3.431-3.4 L173.348,80.819c0,22.879,18.779,41.492,41.86,41.492H237.167z"></path> <path style="fill:#FF9783;" d="M232.365,87.091L157.31,41.153c-2.606,0-4.719,2.093-4.719,4.676v81.371 c0,2.832,0.216,5.614,0.62,8.335L232.365,87.091z"></path> <path style="fill:#FF8676;" d="M240.34,184.252c31.737,0,57.555-25.593,57.555-57.052V45.828c0-2.583-2.111-4.676-4.717-4.676 L152.59,127.2c0,31.459,25.819,57.052,57.556,57.052H240.34z"></path> <path style="opacity:0.1;enable-background:new ;" d="M181.121,127.2V55.729L157.31,41.153c-2.606,0-4.719,2.093-4.719,4.676 v81.371c0,31.459,25.819,57.052,57.556,57.052h28.532C206.941,184.252,181.121,158.659,181.121,127.2z"></path> <path style="fill:#FFCCCC;" d="M288.55,137.253l27.826-17.03c-3.254-21.337-14.817-37.117-28.584-37.117 c-13.586,0-25.02,15.368-28.444,36.275L288.55,137.253z"></path> <path style="fill:#FFBAC5;" d="M294.134,133.785l-53.689-32.86c-1.851,0-3.352,1.488-3.352,3.323v57.814 c0,2.154,0.174,4.265,0.502,6.329L294.134,133.785z"></path> <path style="fill:#FFDEDE;" d="M299.44,202.597c22.549,0,40.893-18.184,40.893-40.536v-57.814c0-1.835-1.5-3.323-3.352-3.323 l-99.888,61.137c0,22.351,18.345,40.536,40.894,40.536H299.44z"></path> <path style="fill:#FFCCCC;" d="M294.749,168.188l-73.325-44.878c-2.545,0-4.61,2.046-4.61,4.568v79.496 c0,2.766,0.212,5.485,0.606,8.143L294.749,168.188z"></path> <path style="fill:#FFBAC5;" d="M302.539,263.109c31.004,0,56.228-25.002,56.228-55.736v-79.496c0-2.522-2.063-4.568-4.609-4.568 l-137.347,84.064c0,30.734,25.224,55.736,56.229,55.736H302.539z"></path> <path style="opacity:0.1;enable-background:new ;" d="M244.686,207.374V137.55l-23.263-14.241c-2.545,0-4.61,2.046-4.61,4.568 v79.496c0,30.734,25.224,55.736,56.229,55.736h27.875C269.91,263.109,244.686,238.107,244.686,207.374z"></path> <path style="fill:#B52A1F;" d="M263.645,476.973c-1.34,0-2.626-0.531-3.574-1.476l-34.882-34.815 c-4.931-4.915-7.647-11.453-7.647-18.408c0-6.954,2.717-13.492,7.648-18.409c4.931-4.917,11.487-7.627,18.461-7.627 c6.976,0,13.531,2.709,18.462,7.627l1.532,1.529l1.533-1.529c4.931-4.917,11.488-7.627,18.462-7.627 c6.974,0,13.53,2.709,18.462,7.627c4.93,4.917,7.646,11.455,7.646,18.409c0,6.955-2.716,13.493-7.646,18.411l-34.882,34.812 C266.273,476.443,264.987,476.973,263.645,476.973z"></path> <path style="opacity:0.1;enable-background:new ;" d="M213.737,501.419l-8.439-139.414h-21.861l8.439,139.414 c0.351,5.818,5.41,10.581,11.24,10.581h21.861C219.147,512,214.088,507.237,213.737,501.419z"></path> <path style="opacity:0.1;enable-background:new ;" d="M274.936,466.303c-1.34,0-2.626-0.531-3.574-1.476l-34.882-34.815 c-4.931-4.916-7.648-11.454-7.648-18.409c0-4.525,1.157-8.87,3.32-12.712c-2.546,1.248-4.898,2.914-6.963,4.974 c-4.931,4.917-7.648,11.455-7.648,18.409c0,6.955,2.717,13.493,7.647,18.408l34.882,34.815c0.949,0.946,2.234,1.476,3.574,1.476 c1.342,0,2.628-0.531,3.576-1.476l9.572-9.553C276.207,466.175,275.58,466.303,274.936,466.303z"></path> <path style="fill:#C69C6D;" d="M366.934,361.38c0,5.831-4.77,10.602-10.6,10.602H170.956c-5.831,0-10.6-4.77-10.6-10.602v-46.918 c0-5.831,4.771-10.6,10.6-10.6h185.377c5.831,0,10.6,4.769,10.6,10.6V361.38z"></path> <path style="opacity:0.1;enable-background:new ;" d="M182.377,361.38v-46.918c0-5.831,4.77-10.6,10.6-10.6h-22.021 c-5.831,0-10.6,4.769-10.6,10.6v46.917c0,5.831,4.771,10.602,10.6,10.602h22.021C187.147,371.981,182.377,367.211,182.377,361.38z"></path> </g></svg>